<svg fill="none" height="527" viewBox="0 0 1000 527" width="1000" xmlns="http://www.w3.org/2000/svg"><path d="m1000 0h-1000v526.316h1000z" fill="#b22234"/><path d="m0 60.7288h1000z" fill="#000"/><path d="m0 60.7288h1000" stroke="#fff" stroke-width="40"/><path d="m1000 141.7h-1000z" fill="#000"/><path d="m1000 141.7h-1000" stroke="#fff" stroke-width="40"/><path d="m0 222.672h1000z" fill="#000"/><path d="m0 222.672h1000" stroke="#fff" stroke-width="40"/><path d="m1000 303.644h-1000z" fill="#000"/><path d="m1000 303.644h-1000" stroke="#fff" stroke-width="40"/><path d="m0 384.615h1000z" fill="#000"/><path d="m0 384.615h1000" stroke="#fff" stroke-width="40"/><path d="m1000 465.587h-1000z" fill="#000"/><path d="m1000 465.587h-1000" stroke="#fff" stroke-width="40"/><path d="m400 0h-400v283.401h400z" fill="#3c3b6e"/><g fill="#fff"><path d="m33.3334 12.1458 9.5188 29.2958-24.9206-18.1058h30.8035l-24.9205 18.1058z"/><path d="m33.3334 68.8259 9.5188 29.2958-24.9206-18.1058h30.8035l-24.9205 18.1058z"/><path d="m33.3334 125.506 9.5188 29.296-24.9206-18.106h30.8035l-24.9205 18.106z"/><path d="m33.3334 182.186 9.5188 29.296-24.9206-18.106h30.8035l-24.9205 18.106z"/><path d="m33.3334 238.866 9.5188 29.296-24.9206-18.106h30.8035l-24.9205 18.106z"/><path d="m66.6669 40.4858 9.5187 29.2959-24.9205-18.1059h30.8035l-24.9205 18.1059z"/><path d="m66.6669 97.166 9.5187 29.296-24.9205-18.106h30.8035l-24.9205 18.106z"/><path d="m66.6669 153.846 9.5187 29.296-24.9205-18.106h30.8035l-24.9205 18.106z"/><path d="m66.6669 210.526 9.5187 29.296-24.9205-18.106h30.8035l-24.9205 18.106z"/><path d="m99.9999 12.1458 9.5191 29.2958-24.9209-18.1058h30.8039l-24.9209 18.1058z"/><path d="m99.9999 68.8259 9.5191 29.2958-24.9209-18.1058h30.8039l-24.9209 18.1058z"/><path d="m99.9999 125.506 9.5191 29.296-24.9209-18.106h30.8039l-24.9209 18.106z"/><path d="m99.9999 182.186 9.5191 29.296-24.9209-18.106h30.8039l-24.9209 18.106z"/><path d="m99.9999 238.866 9.5191 29.296-24.9209-18.106h30.8039l-24.9209 18.106z"/><path d="m133.333 40.4858 9.519 29.2959-24.92-18.1059h30.803l-24.92 18.1059z"/><path d="m133.333 97.166 9.519 29.296-24.92-18.106h30.803l-24.92 18.106z"/><path d="m133.333 153.846 9.519 29.296-24.92-18.106h30.803l-24.92 18.106z"/><path d="m133.333 210.526 9.519 29.296-24.92-18.106h30.803l-24.92 18.106z"/><path d="m166.667 12.1458 9.519 29.2958-24.921-18.1058h30.804l-24.921 18.1058z"/><path d="m166.667 68.8259 9.519 29.2958-24.921-18.1058h30.804l-24.921 18.1058z"/><path d="m166.667 125.506 9.519 29.296-24.921-18.106h30.804l-24.921 18.106z"/><path d="m166.667 182.186 9.519 29.296-24.921-18.106h30.804l-24.921 18.106z"/><path d="m166.667 238.866 9.519 29.296-24.921-18.106h30.804l-24.921 18.106z"/><path d="m200 40.4858 9.519 29.2959-24.92-18.1059h30.803l-24.92 18.1059z"/><path d="m200 97.166 9.519 29.296-24.92-18.106h30.803l-24.92 18.106z"/><path d="m200 153.846 9.519 29.296-24.92-18.106h30.803l-24.92 18.106z"/><path d="m200 210.526 9.519 29.296-24.92-18.106h30.803l-24.92 18.106z"/><path d="m233.333 12.1458 9.519 29.2958-24.92-18.1058h30.803l-24.92 18.1058z"/><path d="m233.333 68.8259 9.519 29.2958-24.92-18.1058h30.803l-24.92 18.1058z"/><path d="m233.333 125.506 9.519 29.296-24.92-18.106h30.803l-24.92 18.106z"/><path d="m233.333 182.186 9.519 29.296-24.92-18.106h30.803l-24.92 18.106z"/><path d="m233.333 238.866 9.519 29.296-24.92-18.106h30.803l-24.92 18.106z"/><path d="m266.667 40.4858 9.519 29.2959-24.921-18.1059h30.804l-24.921 18.1059z"/><path d="m266.667 97.166 9.519 29.296-24.921-18.106h30.804l-24.921 18.106z"/><path d="m266.667 153.846 9.519 29.296-24.921-18.106h30.804l-24.921 18.106z"/><path d="m266.667 210.526 9.519 29.296-24.921-18.106h30.804l-24.921 18.106z"/><path d="m300 12.1458 9.519 29.2958-24.921-18.1058h30.804l-24.921 18.1058z"/><path d="m300 68.8259 9.519 29.2958-24.921-18.1058h30.804l-24.921 18.1058z"/><path d="m300 125.506 9.519 29.296-24.921-18.106h30.804l-24.921 18.106z"/><path d="m300 182.186 9.519 29.296-24.921-18.106h30.804l-24.921 18.106z"/><path d="m300 238.866 9.519 29.296-24.921-18.106h30.804l-24.921 18.106z"/><path d="m333.333 40.4858 9.519 29.2959-24.92-18.1059h30.803l-24.92 18.1059z"/><path d="m333.333 97.166 9.519 29.296-24.92-18.106h30.803l-24.92 18.106z"/><path d="m333.333 153.846 9.519 29.296-24.92-18.106h30.803l-24.92 18.106z"/><path d="m333.333 210.526 9.519 29.296-24.92-18.106h30.803l-24.92 18.106z"/><path d="m366.667 12.1458 9.519 29.2958-24.921-18.1058h30.804l-24.921 18.1058z"/><path d="m366.667 68.8259 9.519 29.2958-24.921-18.1058h30.804l-24.921 18.1058z"/><path d="m366.667 125.506 9.519 29.296-24.921-18.106h30.804l-24.921 18.106z"/><path d="m366.667 182.186 9.519 29.296-24.921-18.106h30.804l-24.921 18.106z"/><path d="m366.667 238.866 9.519 29.296-24.921-18.106h30.804l-24.921 18.106z"/></g></svg>