<svg height="500" viewBox="0 0 1000 500" width="1000" xmlns="http://www.w3.org/2000/svg"><g fill="none" fill-rule="nonzero"><g><path d="m0 0h1000v500h-1000z" fill="#008751"/><path d="m333.333333 0h333.333333v500h-333.333333z" fill="#fff"/></g><g transform="translate(0 -83)"><path d="m0 0h1000v666.666667h-1000z" fill="#006b3f"/><path d="m0 0h1000v444.444444h-1000z" fill="#fcd116"/><path d="m0 0h1000v222.222222h-1000z" fill="#ce1126"/><path d="m500 222.222222 72.204444 222.222222-189.033333-137.34h233.657778l-189.033333 137.34z" fill="#000"/></g><g><path d="m0-126h1000v666.666667h-1000z" fill="#00853f"/><path d="m333.333333-126h666.666667v666.666667h-666.666667z" fill="#fdef42"/><path d="m666.666667-126h333.333333v666.666667h-333.333333z" fill="#e31b23"/><g fill="#00853f" transform="translate(377.777778 96.222222)"><path d="m34.8061813 5.86472297v111.11111103h55.5555556z" transform="matrix(.95105652 .30901699 -.30901699 .95105652 90.931876 -16.333384)"/><path d="m15.9172924 5.86472297v111.11111103h55.5555556z" transform="matrix(-.95105652 .30901699 .30901699 .95105652 135.548168 -10.496397)"/><path d="m34.8061813 5.86472297v111.11111103h55.5555556z" transform="matrix(0 1.00000000434 -1.00000000434 0 233.75989084021 41.96970934643)"/><path d="m15.9172924 5.86472297v111.11111103h55.5555556z" transform="matrix(-.58778524626 -.80901700413 -.80901700413 .58778524626 241.99577855551 86.20605290466)"/><path d="m34.8061813 5.86472297v111.11111103h55.5555556z" transform="matrix(-.95105651185 .30901699926 -.30901699926 -.95105651185 222.44663820444 195.82386978474)"/><path d="m15.9172924 5.86472297v111.11111103h55.5555556z" transform="matrix(.58778525441 -.80901698948 -.80901698948 -.58778525441 182.92040508259 217.32644647862)"/><path d="m34.8061813 5.86472297v111.11111103h55.5555556z" transform="matrix(-.58778525441 -.80901698948 .80901698948 -.58778525441 72.62664880886 232.60787753565)"/><path d="m15.9172924 5.86472297v111.11111103h55.5555556z" transform="matrix(.95105651185 .30901699926 .30901699926 -.95105651185 39.96220541311 201.66085753495)"/><path d="m34.8061813 5.86472297v111.11111103h55.5555556z" transform="matrix(.58778524626 -.80901700413 .80901700413 .58778524626 -8.65394485351 101.48748433318)"/><path d="m15.9172924 5.86472297v111.11111103h55.5555556z" transform="matrix(0 1.00000000434 1.00000000434 0 10.68455194879 60.85859708177)"/></g></g><g><path d="m0-83h1000v666.666667h-1000z" fill="#007a5e"/><path d="m333.333333-83h666.666667v666.666667h-666.666667z" fill="#ce1126"/><g fill="#fcd116"><path d="m666.666667-83h333.333333v666.666667h-333.333333z"/><g transform="translate(400 161.444444)"><path d="m29.6227228 4.69177838v88.88888892h44.4444445z" transform="matrix(.95105652 .30901699 -.30901699 .95105652 73.276956 -13.616071)"/><path d="m18.5116117 4.69177838v88.88888892h44.4444445z" transform="matrix(-.95105652 .30901699 .30901699 .95105652 116.15575 -10.182549)"/><path d="m29.6227228 4.69177838v88.88888892h44.4444445z" transform="matrix(0 1.00000000434 -1.00000000434 0 189.23013478792 31.79798873748)"/><path d="m18.5116117 4.69177838v88.88888892h44.4444445z" transform="matrix(-.58778524626 -.80901700413 -.80901700413 .58778524626 199.21493715997 73.63916197446)"/><path d="m29.6227228 4.69177838v88.88888892h44.4444445z" transform="matrix(-.95105651185 .30901699926 -.30901699926 -.95105651185 181.87030001017 156.1097323054)"/><path d="m18.5116117 4.69177838v88.88888892h44.4444445z" transform="matrix(.58778525441 -.80901698948 -.80901698948 -.58778525441 145.16245356631 178.53547732285)"/><path d="m29.6227228 4.69177838v88.88888892h44.4444445z" transform="matrix(-.58778525441 -.80901698948 .80901698948 -.58778525441 61.36849461666 187.5245552467)"/><path d="m18.5116117 4.69177838v88.88888892h44.4444445z" transform="matrix(.95105651185 .30901699926 .30901699926 -.95105651185 28.6969953471 159.54325496217)"/><path d="m29.6227228 4.69177838v88.88888892h44.4444445z" transform="matrix(.58778524626 -.80901700413 .80901700413 .58778524626 -5.74588541475 82.62823971043)"/><path d="m18.5116117 4.69177838v88.88888892h44.4444445z" transform="matrix(0 1.00000000434 1.00000000434 0 10.76986392663 42.90909974053)"/></g></g></g><g><path d="m0-83h1000v666.666667h-1000z" fill="#c60c30"/><path d="m0-83h666.666667v666.666667h-666.666667z" fill="#fecb00"/><path d="m0-83h333.333333v666.666667h-333.333333z" fill="#002664"/></g><g><path d="m0-83h1000v666.666667h-1000z" fill="#ed2939"/><path d="m0-83h666.666667v666.666667h-666.666667z" fill="#fff"/><path d="m0-83h333.333333v666.666667h-333.333333z" fill="#002395"/></g><g transform="translate(0 -13)"><path d="m0 0h1000v526.315789h-1000z" fill="#b22234"/><g fill="#000" stroke="#fff" stroke-width="40"><path d="m0 60.7287449h1000"/><path d="m1000 141.700405h-1000"/><path d="m0 222.672065h1000"/><path d="m1000 303.643725h-1000"/><path d="m0 384.615385h1000"/><path d="m1000 465.587045h-1000"/></g><path d="m0 0h400v283.40081h-400z" fill="#3c3b6e"/><g fill="#fff"><g transform="translate(17.813765 12.145749)"><path d="m15.5195682 0 9.5187894 29.2958217-24.92051441-18.1058135h30.80344991l-24.92051442 18.1058135z"/><path d="m15.5195682 0 9.5187894 29.2958217-24.92051441-18.1058135h30.80344991l-24.92051442 18.1058135z" transform="translate(0 56.680162)"/><path d="m15.5195682 0 9.5187894 29.2958217-24.92051441-18.1058135h30.80344991l-24.92051442 18.1058135z" transform="translate(0 113.360324)"/><path d="m15.5195682 0 9.5187894 29.2958217-24.92051441-18.1058135h30.80344991l-24.92051442 18.1058135z" transform="translate(0 170.040486)"/></g><path d="m15.5195682 0 9.5187894 29.2958217-24.92051441-18.1058135h30.80344991l-24.92051442 18.1058135z" transform="translate(17.813765 238.866397)"/><g transform="translate(51.147098 40.48583)"><path d="m15.5195682 0 9.5187894 29.2958217-24.92051441-18.1058135h30.80344991l-24.92051442 18.1058135z"/><path d="m15.5195682 0 9.5187894 29.2958217-24.92051441-18.1058135h30.80344991l-24.92051442 18.1058135z" transform="translate(0 56.680162)"/><path d="m15.5195682 0 9.5187894 29.2958217-24.92051441-18.1058135h30.80344991l-24.92051442 18.1058135z" transform="translate(0 113.360324)"/><path d="m15.5195682 0 9.5187894 29.2958217-24.92051441-18.1058135h30.80344991l-24.92051442 18.1058135z" transform="translate(0 170.040486)"/></g><g transform="translate(84.480432 12.145749)"><path d="m15.5195682 0 9.5187894 29.2958217-24.92051441-18.1058135h30.80344991l-24.92051442 18.1058135z"/><path d="m15.5195682 0 9.5187894 29.2958217-24.92051441-18.1058135h30.80344991l-24.92051442 18.1058135z" transform="translate(0 56.680162)"/><path d="m15.5195682 0 9.5187894 29.2958217-24.92051441-18.1058135h30.80344991l-24.92051442 18.1058135z" transform="translate(0 113.360324)"/><path d="m15.5195682 0 9.5187894 29.2958217-24.92051441-18.1058135h30.80344991l-24.92051442 18.1058135z" transform="translate(0 170.040486)"/></g><path d="m15.5195682 0 9.5187894 29.2958217-24.92051441-18.1058135h30.80344991l-24.92051442 18.1058135z" transform="translate(84.480432 238.866397)"/><g transform="translate(117.813765 40.48583)"><path d="m15.5195682 0 9.5187894 29.2958217-24.92051441-18.1058135h30.80344991l-24.92051442 18.1058135z"/><path d="m15.5195682 0 9.5187894 29.2958217-24.92051441-18.1058135h30.80344991l-24.92051442 18.1058135z" transform="translate(0 56.680162)"/><path d="m15.5195682 0 9.5187894 29.2958217-24.92051441-18.1058135h30.80344991l-24.92051442 18.1058135z" transform="translate(0 113.360324)"/><path d="m15.5195682 0 9.5187894 29.2958217-24.92051441-18.1058135h30.80344991l-24.92051442 18.1058135z" transform="translate(0 170.040486)"/></g><g transform="translate(151.147098 12.145749)"><path d="m15.5195682 0 9.5187894 29.2958217-24.92051441-18.1058135h30.80344991l-24.92051442 18.1058135z"/><path d="m15.5195682 0 9.5187894 29.2958217-24.92051441-18.1058135h30.80344991l-24.92051442 18.1058135z" transform="translate(0 56.680162)"/><path d="m15.5195682 0 9.5187894 29.2958217-24.92051441-18.1058135h30.80344991l-24.92051442 18.1058135z" transform="translate(0 113.360324)"/><path d="m15.5195682 0 9.5187894 29.2958217-24.92051441-18.1058135h30.80344991l-24.92051442 18.1058135z" transform="translate(0 170.040486)"/></g><path d="m15.5195682 0 9.5187894 29.2958217-24.92051441-18.1058135h30.80344991l-24.92051442 18.1058135z" transform="translate(151.147098 238.866397)"/><g transform="translate(184.480431 40.48583)"><path d="m15.5195682 0 9.5187894 29.2958217-24.92051441-18.1058135h30.80344991l-24.92051442 18.1058135z"/><path d="m15.5195682 0 9.5187894 29.2958217-24.92051441-18.1058135h30.80344991l-24.92051442 18.1058135z" transform="translate(0 56.680162)"/><path d="m15.5195682 0 9.5187894 29.2958217-24.92051441-18.1058135h30.80344991l-24.92051442 18.1058135z" transform="translate(0 113.360324)"/><path d="m15.5195682 0 9.5187894 29.2958217-24.92051441-18.1058135h30.80344991l-24.92051442 18.1058135z" transform="translate(0 170.040486)"/></g><g transform="translate(217.813765 12.145749)"><path d="m15.5195682 0 9.5187894 29.2958217-24.92051441-18.1058135h30.80344991l-24.92051442 18.1058135z"/><path d="m15.5195682 0 9.5187894 29.2958217-24.92051441-18.1058135h30.80344991l-24.92051442 18.1058135z" transform="translate(0 56.680162)"/><path d="m15.5195682 0 9.5187894 29.2958217-24.92051441-18.1058135h30.80344991l-24.92051442 18.1058135z" transform="translate(0 113.360324)"/><path d="m15.5195682 0 9.5187894 29.2958217-24.92051441-18.1058135h30.80344991l-24.92051442 18.1058135z" transform="translate(0 170.040486)"/></g><path d="m15.5195682 0 9.5187894 29.2958217-24.92051441-18.1058135h30.80344991l-24.92051442 18.1058135z" transform="translate(217.813765 238.866397)"/><g transform="translate(251.147098 40.48583)"><path d="m15.5195682 0 9.5187894 29.2958217-24.92051441-18.1058135h30.80344991l-24.92051442 18.1058135z"/><path d="m15.5195682 0 9.5187894 29.2958217-24.92051441-18.1058135h30.80344991l-24.92051442 18.1058135z" transform="translate(0 56.680162)"/><path d="m15.5195682 0 9.5187894 29.2958217-24.92051441-18.1058135h30.80344991l-24.92051442 18.1058135z" transform="translate(0 113.360324)"/><path d="m15.5195682 0 9.5187894 29.2958217-24.92051441-18.1058135h30.80344991l-24.92051442 18.1058135z" transform="translate(0 170.040486)"/></g><g transform="translate(284.480432 12.145749)"><path d="m15.5195682 0 9.5187894 29.2958217-24.92051441-18.1058135h30.80344991l-24.92051442 18.1058135z"/><path d="m15.5195682 0 9.5187894 29.2958217-24.92051441-18.1058135h30.80344991l-24.92051442 18.1058135z" transform="translate(0 56.680162)"/><path d="m15.5195682 0 9.5187894 29.2958217-24.92051441-18.1058135h30.80344991l-24.92051442 18.1058135z" transform="translate(0 113.360324)"/><path d="m15.5195682 0 9.5187894 29.2958217-24.92051441-18.1058135h30.80344991l-24.92051442 18.1058135z" transform="translate(0 170.040486)"/></g><path d="m15.5195682 0 9.5187894 29.2958217-24.92051441-18.1058135h30.80344991l-24.92051442 18.1058135z" transform="translate(284.480432 238.866397)"/><g transform="translate(317.813765 40.48583)"><path d="m15.5195682 0 9.5187894 29.2958217-24.92051441-18.1058135h30.80344991l-24.92051442 18.1058135z"/><path d="m15.5195682 0 9.5187894 29.2958217-24.92051441-18.1058135h30.80344991l-24.92051442 18.1058135z" transform="translate(0 56.680162)"/><path d="m15.5195682 0 9.5187894 29.2958217-24.92051441-18.1058135h30.80344991l-24.92051442 18.1058135z" transform="translate(0 113.360324)"/><path d="m15.5195682 0 9.5187894 29.2958217-24.92051441-18.1058135h30.80344991l-24.92051442 18.1058135z" transform="translate(0 170.040486)"/></g><g transform="translate(351.147098 12.145749)"><path d="m15.5195682 0 9.5187894 29.2958217-24.92051441-18.1058135h30.80344991l-24.92051442 18.1058135z"/><path d="m15.5195682 0 9.5187894 29.2958217-24.92051441-18.1058135h30.80344991l-24.92051442 18.1058135z" transform="translate(0 56.680162)"/><path d="m15.5195682 0 9.5187894 29.2958217-24.92051441-18.1058135h30.80344991l-24.92051442 18.1058135z" transform="translate(0 113.360324)"/><path d="m15.5195682 0 9.5187894 29.2958217-24.92051441-18.1058135h30.80344991l-24.92051442 18.1058135z" transform="translate(0 170.040486)"/></g><path d="m15.5195682 0 9.5187894 29.2958217-24.92051441-18.1058135h30.80344991l-24.92051442 18.1058135z" transform="translate(351.147098 238.866397)"/></g></g><g><path d="m0-83h1000v666.666667h-1000z" fill="#fff"/><path d="m0-83h1000v200h-1000z" fill="#000"/><path d="m0 150.333333h1000v200h-1000z" fill="#b00"/><path d="m0 383.666667h1000v200h-1000z" fill="#060"/><g transform="translate(354.166667 8.666667)"><path d="m134.622504 475.185117h8.333334v-389.2734414c8.333333-8.3333333 8.333333-20.8333333 8.333333-33.3333333 0-8.3333333 0-41.6666667-12.5-77.7634589-12.5 36.0967922-12.5 69.4301256-12.5 77.7634589 0 12.5 0 25 8.333333 33.3333333z" fill="#000" transform="matrix(.8660254 .5 -.5 .8660254 147.76089 -39.250301)"/><path d="m134.622504 475.185117h8.333334v-389.2734414c8.333333-8.3333333 8.333333-20.8333333 8.333333-33.3333333 0-8.3333333 0-41.6666667-12.5-77.7634589-12.5 36.0967922-12.5 69.4301256-12.5 77.7634589 0 12.5 0 25 8.333333 33.3333333z" fill="#fff" transform="matrix(.8660254 .5 -.5 .8660254 147.76089 -39.250301)"/><path d="m134.622504 475.185117h8.333334v-389.2734414c8.333333-8.3333333 8.333333-20.8333333 8.333333-33.3333333 0-8.3333333 0-41.6666667-12.5-77.7634589-12.5 36.0967922-12.5 69.4301256-12.5 77.7634589 0 12.5 0 25 8.333333 33.3333333z" fill="#000" transform="matrix(-.8660254 .5 .5 .8660254 143.905777 -39.250301)"/><path d="m134.622504 475.185117h8.333334v-389.2734414c8.333333-8.3333333 8.333333-20.8333333 8.333333-33.3333333 0-8.3333333 0-41.6666667-12.5-77.7634589-12.5 36.0967922-12.5 69.4301256-12.5 77.7634589 0 12.5 0 25 8.333333 33.3333333z" fill="#fff" transform="matrix(-.8660254 .5 .5 .8660254 143.905777 -39.250301)"/><path d="m66.6666667 341.666667c12.5 33.333333 54.1666663 100 79.1666663 100s66.666667-66.666667 79.166667-100v-200c-12.5-33.333334-54.166667-100.0000003-79.166667-100.0000003s-66.6666663 66.6666663-79.1666663 100.0000003z" fill="#b00"/><path d="m225 341.666667c12.5-33.333334 20.833333-66.666667 20.833333-100 0-33.333334-8.333333-66.666667-20.833333-100-12.5 33.333333-20.833333 66.666666-20.833333 100 0 33.333333 8.333333 66.666666 20.833333 100z" fill="#000"/><path d="m20.8333333 200c12.5-33.333333 20.8333334-66.666667 20.8333334-100 0-33.3333333-8.3333334-66.6666667-20.8333334-100-12.49999997 33.3333333-20.8333333 66.6666667-20.8333333 100 0 33.333333 8.33333333 66.666667 20.8333333 100z" fill="#000" transform="matrix(-1 0 0 1 87.500001 141.666667)"/><g fill="#fff" transform="translate(125 41.666667)"><ellipse cx="20.833333" cy="200" rx="16.666667" ry="25"/><path d="m25 224.375s16.6666667 33.333333 16.6666667 87.5-16.6666667 87.5-16.6666667 87.5z"/><path d="m0 3.54166667s16.6666667 33.33333333 16.6666667 87.50000003c0 54.1666663-16.6666667 87.5000003-16.6666667 87.5000003z" transform="matrix(-1 0 0 -1 16.666666 179.166666)"/><path d="m0 3.54166667s16.6666667 33.33333333 16.6666667 87.50000003c0 54.1666663-16.6666667 87.5000003-16.6666667 87.5000003z" transform="matrix(-1 0 0 1 16.666666 220.833333)"/><path d="m0 3.54166667s16.6666667 33.33333333 16.6666667 87.50000003c0 54.1666663-16.6666667 87.5000003-16.6666667 87.5000003z" transform="matrix(1 0 0 -1 25 179.166666)"/></g></g></g><g><path d="m0-83h1000v666.666667h-1000z" fill="#0072c6"/><path d="m0-83h1000v444.444444h-1000z" fill="#fff"/><path d="m0-83h1000v222.222222h-1000z" fill="#1eb53a"/></g><g><path d="m0 0h1000v666.666667h-1000z" fill="#198a00"/><path d="m880.952381 238.095238h119.047619v428.571429h-119.047619z" fill="#ef7d00"/><path d="m761.904762 238.095238h119.047619v428.571429h-119.047619z" fill="#000"/><path d="m642.857143 238.095238h119.047619v428.571429h-119.047619z" fill="#de2010"/><g fill="#ef7d00" stroke="#000" stroke-linecap="round" stroke-linejoin="round" stroke-width="2.25" transform="translate(663.809524 56.666667)"><path d="m248.773571 23.4925714s40.953334-16.05042854 44.921334-19.35995235c1.804571 1.98561905-16.417334 22.17299995-51.777 29.61914765 32.112238-6.9497667 59.535-28.79186194 65.127666-28.12995718 1.623762.33095238 1.262096 21.34561908-72.344095 39.54731908 50.874762-12.2448572 80.461905-34.7487 80.101143-32.2666524.360762.4963809-5.051095 17.7052476-49.611762 31.1083 12.448381-2.6478952 46.184429-21.5110619 45.823667-17.8706333 1.08219 1.4891904-32.65381 41.2016714-93.631714 28.2955809 48.710333 11.5826524 80.281047-16.3818476 84.791523-15.885419.902286.1654523-9.020952 24.4894809-70.358714 25.9787762 29.407238-2.8127334 20.926905-.1658143 20.926905-.1658143s-17.319619 12.4101904-38.246476 3.9719809c16.417285 4.1370286 18.220904 4.3020286 18.581714 5.6254714-1.082238 1.6543-14.61281 4.1370239-27.60181-2.3168714 10.463 3.9711714 19.844667 4.6337429 20.024619 6.1230381-.179952.4958619-6.854809 3.9711714-12.80819 1.4892953-5.953429-2.4827239-60.798-33.4251667-60.798-33.4251667l93.451809-23.4967286z"/><path d="m138.910762 107.192976c-8.217619 0-8.444381 6.707157-8.444381 6.707157s-.678238.484324-.22581 3.735205c1.356619-2.213709 2.03581-2.905162 2.03581-2.905162.904952.138638 4.67419 1.175772 10.630286-3.111433-5.428953 5.185743-2.186 7.122219-2.186 7.122219s-1.28181 4.080081 2.864333 4.910124c-1.281048-1.660091-.52719-3.112248-.52719-3.112248s5.804952-.552809 5.428095-7.052876c.226666 5.877109 3.694524 7.329262 3.694524 7.329262s0 3.250033 3.769238 3.527271c-2.03481-1.66009-1.583286-4.218676-1.583286-4.218676s4.900905-3.250038.753905-8.782271c2.48819-1.31441 4.523952-4.978615 4.523952-4.978615s-3.392286-1.314371-4.975571-2.419995c-.754762-1.453005-.075524-9.4052285-.075524-9.4052285l-2.03581-10.3037619-5.805857 16.0439384c.225762-2.2822431.376953 6.91509-7.840714 6.91509z"/><path d="m179.497048 84.0540762c.179904.1658571 6.13419 6.2888524 11.906857 5.9571809 2.164333-1.6543381-4.510524-5.2946095-4.510524-6.1221857 2.34519 1.9859715 12.267571 9.7624953 18.582571 6.9497238 2.525096-3.3094095-4.510476-2.8127381-12.268428-11.7484714 5.411857 3.3094524 18.943333 10.5900762 25.257428 7.7773381 2.70681-2.6477286-14.072095-10.9217857-19.664762-17.3748333l-14.431904-6.7839048-19.66481 14.7271z"/><path d="m157.307095 33.751681s6.674905-3.6403096 33.375286-1.8201524c2.886762.3308571 18.221-4.7985762 23.09219-6.2878143 7.757048-1.3237619 32.473-6.2879048 39.148715-10.9210953 4.690428-.4963333-1.263905 7.9426191-7.216334 9.9281905-6.315095 2.6475857-29.226428 9.9282476-37.34519 8.9354238 9.742476.1655334 4.330619 7.4461096-11.906762 3.9712524 7.757952 3.9712524 4.87119 4.6331333 4.87119 4.6331333s-13.710476.661881-17.318666-2.1510952c9.200905 3.1439572 5.411857 4.3021952 5.411857 4.3021952s-9.380762.8273286-13.711381-.9928285c6.674905 1.8201571 3.247476 2.9785095 3.247476 2.9785095s-5.411857.8273333-9.922333-.661881c-4.509619-1.4892142-11.365286-11.913838-11.726048-11.913838z"/><path d="m168.013048 87.483981.980523 16.181724s-.528047.830047-.980523 1.314371c-.452524.48351-12.515858-1.72939-10.857048 6.707153 0 3.457976.075571 4.356504 2.639381 6.292985-.679191-2.282204-.452476-3.872147-.452476-3.872147s3.392285 1.867181 6.709952-3.250034c-2.261571 5.047915-.679238 6.845796-.151143 6.984391.528048.899347-.904095 4.978619 3.619 4.909319-1.733476-1.521495-.904095-3.7344-.904095-3.7344s4.74981-.690595 3.090952-8.574329c1.734381-1.590795 2.412667-.069304 2.412667-.069304s.527191 4.70219 4.674238 3.734357c1.885524.967833-.301333 3.526419-.301333 3.526419s3.015333.069343 3.920333-2.282196c.905-2.35069 1.960191-6.569371-3.016286-8.297952-.602714-1.659238 1.961096-1.797881 1.961096-1.797881s3.166476.967833 4.070571 2.420033c.905 1.452153.603619-3.80289-3.316762-4.356509-4.825333-.138595-5.126666-1.037129-5.126666-1.244257 0-.207895-.829429-11.7558811-1.206334-15.0752573z"/><path d="m184.794667 101.273743c.059333-.741748-8.231143-10.9803097-6.127953-12.3037478 2.102286.3968381 5.550381 5.0536667 8.343572 3.5420953-.846524-1.8151715-3.341905-.7929048-6.175572-5.4398095-2.832762-5.253381-3.246571-13.1395905-13.168952-21.7420334 6.423905 9.1032476 20.99619 14.4391334 21.613333 11.7848.617095-2.6543333-12.831619-12.6915571-12.142524-15.1107333 2.674429 4.9678809 16.178 16.0373333 26.127334 15.1206571.681905-2.1312143-8.147476-6.4324333-10.41981-10.4489666-6.355524-3.9159286-23.363905-17.3628429-23.704809-20.4814477-6.189096-8.279319-10.052762-10.7839571-11.851953-11.7375333-.695381-.7512286-.869857-1.4694095-1.005714-1.9259905-3.842095-8.3076047 1.24681-11.0052714 4.225333-11.4041762 2.451334-.2498571 3.162905.0867143 4.927-.6967619-2.088857-.7494762-4.176762-1.4503809-6.264714-2.1998571 2.723048 1.832 9.678619.2190952 8.170905 5.4959048 3.049571-1.0641905 9.538238-8.1447619-7.354095-9.7427143-5.497286-5.78438098-28.099238-9.1086667-33.756619 16.1370952.451571.3539476.688142.6447905 2.125714 1.6294714-7.137286-3.1730381-26.390953-5.6199-33.3294287-6.6481857-18.7445238-4.9603809-38.2114762-16.91423807-40.0827619-15.44414283-2.5028572 1.01890473 11.3254286 12.81876193 10.6066666 13.07995233-11.990238-6.412238-22.9437619-10.9551904-33.1359047-15.08919043-7.1701905-2.45833333-14.3518572-8.18190476-15.1437619-7.09309524-2.6388572 5.01390477 11.4955238 17.61719047 14.1246666 19.09976187 2.6299524 1.4181905 23.3081905 10.2159 23.0032858 10.3257381-31.1453334-12.9660714-36.3671905-15.3166904-37.9300953-16.8116428-2.7450952-.5670953-9.43209521-8.84823812-11.29566664-8.31571431-1.0202381.91933333 1.026 14.00419051 15.88800004 19.87780951 2.4224285 1.6193333 31.8572857 11.3043381 31.5690476 12.0636714-.072.1897524-33.7134286-12.7351476-35.0201905-13.1972428-6.4861429-2.3328095-14.44485714-10.5098095-15.9327619-9.5902857-1.42009524.8343809 3.66890476 9.6849524 10.223 12.4608571 3.4353809 1.3904905 16.6127619 7.3767143 28.485 11.1867238.7577143.2513191-21.3402381-7.6860428-31.96466667-11.7581524-4.8172381-2.4522381-7.08576191-5.5088571-7.81952381-4.8511904-1.08538095.6575714 1.75352381 13.7319285 35.89533338 21.1093095.8995238.3511524 12.018-2.4158572 11.4684761-2.0488667-.1374761.0917762-11.0408095 2.2689143-12.1024285 2.1945143-.9448096-.1323619-6.9180953.6485952-7.0261429.9325143-.3609047.8844 2.1641905 5.5658095 19.7924286 4.5895571 2.253619-.1242619 14.4834762-4.0849428 13.456-3.2329476-.5137619.4262429-16.6537143 5.2365334-17.8829048 5.3314286-1.067619.1383571-6.7375714.6821762-6.9471905 1.2353095-.256.7543905 4.1968096 4.0861953 13.6636191 4.6200095 8.3819048.4084238 24.309-4.6974904 23.9895238-4.3664666-.3195714.3309809-15.3541905 5.0562571-15.747619 5.3442238-.544.2821809-6.0494286.5560905-6.2426667.9439-.4486191.9645524 7.941619 8.1610095 32.7554286.4810381-2.4927619 3.0883143-14.5204286 5.2005666-14.5031429 5.7566571-.0557619.403481 2.6498571 2.8011953 6.8549048 3.6593095 2.1023809.4290381 4.981.3415524 7.6104285-.0396142 4.7228572-.8671858 9.7001905-2.5809 16.0241908-7.9415286.755714 1.6823667-15.7974765 9.3656143-15.0202384 10.0983 3.5893334 3.0528714 15.5123814-.3935572 16.2931904-.7937191.781714-.4010095 22.959905-11.8714333 22.883429-13.1990047.344571 1.7013238-28.593048 16.123119-28.2809051 16.7147333 1.8576191 2.7186476 11.7430951-.1427714 12.2153331-.3927476.471429-.2492095 12.615715-6.2665762 12.948524-6.4439762.332-.1773952-14.272667 7.8400381-12.971857 9.0603143-.62881 5.2063619 22.808809-3.5932429 24.645714-4.688981.918476-.5478714-11.259143 4.9109334-11.291524 7.5041905 3.921334 6.0809572 16.477619 4.1518905 18.414381 2.8143952.968857-.6691285-1.139762 4.517381-.460571 4.046262.236619-.097362 2.731143-2.8028524 3.690095-4.7607953-.305905 1.6988905-1.682238 4.3754619-2.485571 7.4464762-.804191 3.070981-1.034524 6.5363619-2.138238 10.2179429-.252858 1.6171619 7.737238-3.1617381 6.576762-14.5859905.683714 5.942319-2.523286 17.0538524-1.684048 17.6314097 1.678667 1.155119 6.319571-5.5338954 6.788238-10.0570669 1.37819 2.2846715 4.270333 7.0537286 6.758571 8.1510858-.270761-3.4563096.047667-3.2978619-1.072285-6.6948.645857-4.5099286.735857-10.7517572.892333-17.7996953 6.761286 11.8796524 9.458191 16.8962191 7.569095 25.9937191 2.010524.7689663 5.222-6.3499286 4.962953-10.014181 2.581809 10.1816523 13.725762 11.7080903 13.903 11.4118573z"/><path d="m72.1785238 25.8512381s-4.6020476 3.1891429-10.3289048 3.001619c1.4317143 5.2526905 13.2946191 1.2193905 13.2946191 1.2193905s-5.7269048 5.8155048-9.8175238 6.7534476c2.4543809 1.8759667 12.7833333 1.2194334 14.5221905.2814477 1.7380476-.9380239 4.8064285-4.5961524 4.8064285-4.5961524s-10.636 11.2558-12.1699523 11.1620762c-.2045715 1.3131571 11.1471904.8441428 13.4995714-1.1255857 2.3515238-1.9698096 8.2833333-4.8775239 8.2833333-4.8775239s-15.5447143 9.9426096-16.2608095 9.9426096c5.8293333 1.4070381 17.4878571-1.6884 24.9534288-5.9093096-11.0450479 6.7535334-12.0669526 7.9728429-17.6920479 10.2240191 5.0115715 1.0318667 7.5672858 4.1273048 24.5441429-2.6263429 9.715429-4.2208238 15.237048-11.912419 15.237048-11.912419-6.033477 7.4101428-15.544667 13.6951095-26.0769528 19.8855381-.6144285 1.1254286 11.2482858 5.7211809 26.3837148-8.7234619"/><path d="m154.400619 57.1800095s1.022762 4.4084715 5.113143 7.7855572c4.091333 3.3762809 4.398095 6.6593285 4.398095 6.6593285"/><path d="m152.355857 28.4776857s1.431238 3.9394619 5.624143 6.4720857c4.295524 2.5325429 10.73919 10.5054238 11.250143 11.9123762.494762 1.7029048 2.965 13.9763143 2.760857 15.2890238"/><path d="m126.278 34.574519c.306714 1.5007572-6.034381 9.0985477 2.658238 18.0093715-7.874905 8.8164571-7.874 9.9426952-7.874 9.9426952s4.397095 2.2508524 12.272-3.9398238c12.987238 14.6330143 8.659381 21.329481 8.659381 21.329481"/><path d="m140.959095 69.5860667s-1.196428-1.5718.936476-7.4414953c1.920572 2.1221381 4.056191 2.5751096 4.992667 3.4340381.935524.8589191 10.741857 2.1609334 11.365238 8.1717"/><path d="m152.48719 14.4915238c0-.4415714-1.974571-4.3277619-9.34119.5299524 3.948238.2207143 7.847905 2.2963333 9.34119-.5299524z"/><path d="m222.794667 32.2624667c.360714.1654095 22.009952 4.4676857 29.226428 2.3165904-9.200905 11.2519572-27.602714 3.6403096-27.602714 3.6403096 9.020048 2.4820381 9.381714 2.3166285 12.267524 4.6331333.902285 2.1511-16.597191 1.1582762-22.370715-1.8201571 16.05662 4.6331761 16.417381 4.3022381 16.958858 6.1223904.722428 2.4820381-26.339619-.661919-28.684858-3.9712523 7.216429 5.1295714 11.185381 6.1224333 15.154334 8.438938-4.871191 1.9856905-13.891334 3.9709286-30.489429-6.7842333 21.829143 18.2016 41.494 17.0432048 44.561524 20.3526143-7.577143 10.2592143-36.984381-6.1221476-50.514952-14.3957952-13.530524-8.2734477 29.587143 20.022119 33.557 19.5254047-1.985334 2.8127334-16.237381.3308572-17.139715-.9925809"/><path d="m228.387333 51.291481c-2.525143.347485-10.102285.347485-11.184476.17372"/><path d="m65.838 22.8497619s16.465 7.9728238 23.4187143 7.4100524c-1.8405238 1.5945571-4.6022381 2.2511762-4.6022381 2.2511762 1.7389048.6566143 6.5453333 3.0015905 13.8067143 1.5007571-1.7388572 1.5945572-3.9887143 3.3768429-3.9887143 3.3768429s6.2385718 2.1572952 13.2948568-1.2194715c-2.147285 2.4387-3.375238 4.2209858-3.375238 4.2209858l4.909048.2813666"/></g></g><g><path d="m0-83h1000v666.666667h-1000z" fill="#e8112d"/><path d="m0-83h1000v333.333333h-1000z" fill="#fcd116"/><path d="m0-83h400v666.666667h-400z" fill="#008751"/></g></g></svg>