<svg height="500" viewBox="0 0 1000 500" width="1000" xmlns="http://www.w3.org/2000/svg"><g fill="none" fill-rule="nonzero"><g><path d="m0 0h1000v500h-1000z" fill="#008751"/><path d="m333.333333 0h333.333333v500h-333.333333z" fill="#fff"/></g><g transform="translate(0 -83)"><path d="m0 0h1000v666.666667h-1000z" fill="#006b3f"/><path d="m0 0h1000v444.444444h-1000z" fill="#fcd116"/><path d="m0 0h1000v222.222222h-1000z" fill="#ce1126"/><path d="m500 222.222222 72.204444 222.222222-189.033333-137.34h233.657778l-189.033333 137.34z" fill="#000"/></g><g><path d="m0-126h1000v666.666667h-1000z" fill="#00853f"/><path d="m333.333333-126h666.666667v666.666667h-666.666667z" fill="#fdef42"/><path d="m666.666667-126h333.333333v666.666667h-333.333333z" fill="#e31b23"/><g fill="#00853f" transform="translate(377.777778 96.222222)"><path d="m34.8061813 5.86472297v111.11111103h55.5555556z" transform="matrix(.95105652 .30901699 -.30901699 .95105652 90.931876 -16.333384)"/><path d="m15.9172924 5.86472297v111.11111103h55.5555556z" transform="matrix(-.95105652 .30901699 .30901699 .95105652 135.548168 -10.496397)"/><path d="m34.8061813 5.86472297v111.11111103h55.5555556z" transform="matrix(0 1.00000000434 -1.00000000434 0 233.75989084021 41.96970934643)"/><path d="m15.9172924 5.86472297v111.11111103h55.5555556z" transform="matrix(-.58778524626 -.80901700413 -.80901700413 .58778524626 241.99577855551 86.20605290466)"/><path d="m34.8061813 5.86472297v111.11111103h55.5555556z" transform="matrix(-.95105651185 .30901699926 -.30901699926 -.95105651185 222.44663820444 195.82386978474)"/><path d="m15.9172924 5.86472297v111.11111103h55.5555556z" transform="matrix(.58778525441 -.80901698948 -.80901698948 -.58778525441 182.92040508259 217.32644647862)"/><path d="m34.8061813 5.86472297v111.11111103h55.5555556z" transform="matrix(-.58778525441 -.80901698948 .80901698948 -.58778525441 72.62664880886 232.60787753565)"/><path d="m15.9172924 5.86472297v111.11111103h55.5555556z" transform="matrix(.95105651185 .30901699926 .30901699926 -.95105651185 39.96220541311 201.66085753495)"/><path d="m34.8061813 5.86472297v111.11111103h55.5555556z" transform="matrix(.58778524626 -.80901700413 .80901700413 .58778524626 -8.65394485351 101.48748433318)"/><path d="m15.9172924 5.86472297v111.11111103h55.5555556z" transform="matrix(0 1.00000000434 1.00000000434 0 10.68455194879 60.85859708177)"/></g></g><g><path d="m0-83h1000v666.666667h-1000z" fill="#007a5e"/><path d="m333.333333-83h666.666667v666.666667h-666.666667z" fill="#ce1126"/><g fill="#fcd116"><path d="m666.666667-83h333.333333v666.666667h-333.333333z"/><g transform="translate(400 161.444444)"><path d="m29.6227228 4.69177838v88.88888892h44.4444445z" transform="matrix(.95105652 .30901699 -.30901699 .95105652 73.276956 -13.616071)"/><path d="m18.5116117 4.69177838v88.88888892h44.4444445z" transform="matrix(-.95105652 .30901699 .30901699 .95105652 116.15575 -10.182549)"/><path d="m29.6227228 4.69177838v88.88888892h44.4444445z" transform="matrix(0 1.00000000434 -1.00000000434 0 189.23013478792 31.79798873748)"/><path d="m18.5116117 4.69177838v88.88888892h44.4444445z" transform="matrix(-.58778524626 -.80901700413 -.80901700413 .58778524626 199.21493715997 73.63916197446)"/><path d="m29.6227228 4.69177838v88.88888892h44.4444445z" transform="matrix(-.95105651185 .30901699926 -.30901699926 -.95105651185 181.87030001017 156.1097323054)"/><path d="m18.5116117 4.69177838v88.88888892h44.4444445z" transform="matrix(.58778525441 -.80901698948 -.80901698948 -.58778525441 145.16245356631 178.53547732285)"/><path d="m29.6227228 4.69177838v88.88888892h44.4444445z" transform="matrix(-.58778525441 -.80901698948 .80901698948 -.58778525441 61.36849461666 187.5245552467)"/><path d="m18.5116117 4.69177838v88.88888892h44.4444445z" transform="matrix(.95105651185 .30901699926 .30901699926 -.95105651185 28.6969953471 159.54325496217)"/><path d="m29.6227228 4.69177838v88.88888892h44.4444445z" transform="matrix(.58778524626 -.80901700413 .80901700413 .58778524626 -5.74588541475 82.62823971043)"/><path d="m18.5116117 4.69177838v88.88888892h44.4444445z" transform="matrix(0 1.00000000434 1.00000000434 0 10.76986392663 42.90909974053)"/></g></g></g><g><path d="m0-83h1000v666.666667h-1000z" fill="#c60c30"/><path d="m0-83h666.666667v666.666667h-666.666667z" fill="#fecb00"/><path d="m0-83h333.333333v666.666667h-333.333333z" fill="#002664"/></g></g></svg>