<svg height="500" viewBox="0 0 1000 500" width="1000" xmlns="http://www.w3.org/2000/svg"><g fill="none" fill-rule="nonzero"><g><path d="m0 0h1000v500h-1000z" fill="#008751"/><path d="m333.333333 0h333.333333v500h-333.333333z" fill="#fff"/></g><g transform="translate(0 -83)"><path d="m0 0h1000v666.666667h-1000z" fill="#006b3f"/><path d="m0 0h1000v444.444444h-1000z" fill="#fcd116"/><path d="m0 0h1000v222.222222h-1000z" fill="#ce1126"/><path d="m500 222.222222 72.204444 222.222222-189.033333-137.34h233.657778l-189.033333 137.34z" fill="#000"/></g><g><path d="m0-126h1000v666.666667h-1000z" fill="#00853f"/><path d="m333.333333-126h666.666667v666.666667h-666.666667z" fill="#fdef42"/><path d="m666.666667-126h333.333333v666.666667h-333.333333z" fill="#e31b23"/><g fill="#00853f" transform="translate(377.777778 96.222222)"><path d="m34.8061813 5.86472297v111.11111103h55.5555556z" transform="matrix(.95105652 .30901699 -.30901699 .95105652 90.931876 -16.333384)"/><path d="m15.9172924 5.86472297v111.11111103h55.5555556z" transform="matrix(-.95105652 .30901699 .30901699 .95105652 135.548168 -10.496397)"/><path d="m34.8061813 5.86472297v111.11111103h55.5555556z" transform="matrix(0 1.00000000434 -1.00000000434 0 233.75989084021 41.96970934643)"/><path d="m15.9172924 5.86472297v111.11111103h55.5555556z" transform="matrix(-.58778524626 -.80901700413 -.80901700413 .58778524626 241.99577855551 86.20605290466)"/><path d="m34.8061813 5.86472297v111.11111103h55.5555556z" transform="matrix(-.95105651185 .30901699926 -.30901699926 -.95105651185 222.44663820444 195.82386978474)"/><path d="m15.9172924 5.86472297v111.11111103h55.5555556z" transform="matrix(.58778525441 -.80901698948 -.80901698948 -.58778525441 182.92040508259 217.32644647862)"/><path d="m34.8061813 5.86472297v111.11111103h55.5555556z" transform="matrix(-.58778525441 -.80901698948 .80901698948 -.58778525441 72.62664880886 232.60787753565)"/><path d="m15.9172924 5.86472297v111.11111103h55.5555556z" transform="matrix(.95105651185 .30901699926 .30901699926 -.95105651185 39.96220541311 201.66085753495)"/><path d="m34.8061813 5.86472297v111.11111103h55.5555556z" transform="matrix(.58778524626 -.80901700413 .80901700413 .58778524626 -8.65394485351 101.48748433318)"/><path d="m15.9172924 5.86472297v111.11111103h55.5555556z" transform="matrix(0 1.00000000434 1.00000000434 0 10.68455194879 60.85859708177)"/></g></g><g><path d="m0-83h1000v666.666667h-1000z" fill="#007a5e"/><path d="m333.333333-83h666.666667v666.666667h-666.666667z" fill="#ce1126"/><g fill="#fcd116"><path d="m666.666667-83h333.333333v666.666667h-333.333333z"/><g transform="translate(400 161.444444)"><path d="m29.6227228 4.69177838v88.88888892h44.4444445z" transform="matrix(.95105652 .30901699 -.30901699 .95105652 73.276956 -13.616071)"/><path d="m18.5116117 4.69177838v88.88888892h44.4444445z" transform="matrix(-.95105652 .30901699 .30901699 .95105652 116.15575 -10.182549)"/><path d="m29.6227228 4.69177838v88.88888892h44.4444445z" transform="matrix(0 1.00000000434 -1.00000000434 0 189.23013478792 31.79798873748)"/><path d="m18.5116117 4.69177838v88.88888892h44.4444445z" transform="matrix(-.58778524626 -.80901700413 -.80901700413 .58778524626 199.21493715997 73.63916197446)"/><path d="m29.6227228 4.69177838v88.88888892h44.4444445z" transform="matrix(-.95105651185 .30901699926 -.30901699926 -.95105651185 181.87030001017 156.1097323054)"/><path d="m18.5116117 4.69177838v88.88888892h44.4444445z" transform="matrix(.58778525441 -.80901698948 -.80901698948 -.58778525441 145.16245356631 178.53547732285)"/><path d="m29.6227228 4.69177838v88.88888892h44.4444445z" transform="matrix(-.58778525441 -.80901698948 .80901698948 -.58778525441 61.36849461666 187.5245552467)"/><path d="m18.5116117 4.69177838v88.88888892h44.4444445z" transform="matrix(.95105651185 .30901699926 .30901699926 -.95105651185 28.6969953471 159.54325496217)"/><path d="m29.6227228 4.69177838v88.88888892h44.4444445z" transform="matrix(.58778524626 -.80901700413 .80901700413 .58778524626 -5.74588541475 82.62823971043)"/><path d="m18.5116117 4.69177838v88.88888892h44.4444445z" transform="matrix(0 1.00000000434 1.00000000434 0 10.76986392663 42.90909974053)"/></g></g></g><g><path d="m0-83h1000v666.666667h-1000z" fill="#c60c30"/><path d="m0-83h666.666667v666.666667h-666.666667z" fill="#fecb00"/><path d="m0-83h333.333333v666.666667h-333.333333z" fill="#002664"/></g><g><path d="m0-83h1000v666.666667h-1000z" fill="#ed2939"/><path d="m0-83h666.666667v666.666667h-666.666667z" fill="#fff"/><path d="m0-83h333.333333v666.666667h-333.333333z" fill="#002395"/></g><g transform="translate(0 -13)"><path d="m0 0h1000v526.315789h-1000z" fill="#b22234"/><g fill="#000" stroke="#fff" stroke-width="40"><path d="m0 60.7287449h1000"/><path d="m1000 141.700405h-1000"/><path d="m0 222.672065h1000"/><path d="m1000 303.643725h-1000"/><path d="m0 384.615385h1000"/><path d="m1000 465.587045h-1000"/></g><path d="m0 0h400v283.40081h-400z" fill="#3c3b6e"/><g fill="#fff"><g transform="translate(17.813765 12.145749)"><path d="m15.5195682 0 9.5187894 29.2958217-24.92051441-18.1058135h30.80344991l-24.92051442 18.1058135z"/><path d="m15.5195682 0 9.5187894 29.2958217-24.92051441-18.1058135h30.80344991l-24.92051442 18.1058135z" transform="translate(0 56.680162)"/><path d="m15.5195682 0 9.5187894 29.2958217-24.92051441-18.1058135h30.80344991l-24.92051442 18.1058135z" transform="translate(0 113.360324)"/><path d="m15.5195682 0 9.5187894 29.2958217-24.92051441-18.1058135h30.80344991l-24.92051442 18.1058135z" transform="translate(0 170.040486)"/></g><path d="m15.5195682 0 9.5187894 29.2958217-24.92051441-18.1058135h30.80344991l-24.92051442 18.1058135z" transform="translate(17.813765 238.866397)"/><g transform="translate(51.147098 40.48583)"><path d="m15.5195682 0 9.5187894 29.2958217-24.92051441-18.1058135h30.80344991l-24.92051442 18.1058135z"/><path d="m15.5195682 0 9.5187894 29.2958217-24.92051441-18.1058135h30.80344991l-24.92051442 18.1058135z" transform="translate(0 56.680162)"/><path d="m15.5195682 0 9.5187894 29.2958217-24.92051441-18.1058135h30.80344991l-24.92051442 18.1058135z" transform="translate(0 113.360324)"/><path d="m15.5195682 0 9.5187894 29.2958217-24.92051441-18.1058135h30.80344991l-24.92051442 18.1058135z" transform="translate(0 170.040486)"/></g><g transform="translate(84.480432 12.145749)"><path d="m15.5195682 0 9.5187894 29.2958217-24.92051441-18.1058135h30.80344991l-24.92051442 18.1058135z"/><path d="m15.5195682 0 9.5187894 29.2958217-24.92051441-18.1058135h30.80344991l-24.92051442 18.1058135z" transform="translate(0 56.680162)"/><path d="m15.5195682 0 9.5187894 29.2958217-24.92051441-18.1058135h30.80344991l-24.92051442 18.1058135z" transform="translate(0 113.360324)"/><path d="m15.5195682 0 9.5187894 29.2958217-24.92051441-18.1058135h30.80344991l-24.92051442 18.1058135z" transform="translate(0 170.040486)"/></g><path d="m15.5195682 0 9.5187894 29.2958217-24.92051441-18.1058135h30.80344991l-24.92051442 18.1058135z" transform="translate(84.480432 238.866397)"/><g transform="translate(117.813765 40.48583)"><path d="m15.5195682 0 9.5187894 29.2958217-24.92051441-18.1058135h30.80344991l-24.92051442 18.1058135z"/><path d="m15.5195682 0 9.5187894 29.2958217-24.92051441-18.1058135h30.80344991l-24.92051442 18.1058135z" transform="translate(0 56.680162)"/><path d="m15.5195682 0 9.5187894 29.2958217-24.92051441-18.1058135h30.80344991l-24.92051442 18.1058135z" transform="translate(0 113.360324)"/><path d="m15.5195682 0 9.5187894 29.2958217-24.92051441-18.1058135h30.80344991l-24.92051442 18.1058135z" transform="translate(0 170.040486)"/></g><g transform="translate(151.147098 12.145749)"><path d="m15.5195682 0 9.5187894 29.2958217-24.92051441-18.1058135h30.80344991l-24.92051442 18.1058135z"/><path d="m15.5195682 0 9.5187894 29.2958217-24.92051441-18.1058135h30.80344991l-24.92051442 18.1058135z" transform="translate(0 56.680162)"/><path d="m15.5195682 0 9.5187894 29.2958217-24.92051441-18.1058135h30.80344991l-24.92051442 18.1058135z" transform="translate(0 113.360324)"/><path d="m15.5195682 0 9.5187894 29.2958217-24.92051441-18.1058135h30.80344991l-24.92051442 18.1058135z" transform="translate(0 170.040486)"/></g><path d="m15.5195682 0 9.5187894 29.2958217-24.92051441-18.1058135h30.80344991l-24.92051442 18.1058135z" transform="translate(151.147098 238.866397)"/><g transform="translate(184.480431 40.48583)"><path d="m15.5195682 0 9.5187894 29.2958217-24.92051441-18.1058135h30.80344991l-24.92051442 18.1058135z"/><path d="m15.5195682 0 9.5187894 29.2958217-24.92051441-18.1058135h30.80344991l-24.92051442 18.1058135z" transform="translate(0 56.680162)"/><path d="m15.5195682 0 9.5187894 29.2958217-24.92051441-18.1058135h30.80344991l-24.92051442 18.1058135z" transform="translate(0 113.360324)"/><path d="m15.5195682 0 9.5187894 29.2958217-24.92051441-18.1058135h30.80344991l-24.92051442 18.1058135z" transform="translate(0 170.040486)"/></g><g transform="translate(217.813765 12.145749)"><path d="m15.5195682 0 9.5187894 29.2958217-24.92051441-18.1058135h30.80344991l-24.92051442 18.1058135z"/><path d="m15.5195682 0 9.5187894 29.2958217-24.92051441-18.1058135h30.80344991l-24.92051442 18.1058135z" transform="translate(0 56.680162)"/><path d="m15.5195682 0 9.5187894 29.2958217-24.92051441-18.1058135h30.80344991l-24.92051442 18.1058135z" transform="translate(0 113.360324)"/><path d="m15.5195682 0 9.5187894 29.2958217-24.92051441-18.1058135h30.80344991l-24.92051442 18.1058135z" transform="translate(0 170.040486)"/></g><path d="m15.5195682 0 9.5187894 29.2958217-24.92051441-18.1058135h30.80344991l-24.92051442 18.1058135z" transform="translate(217.813765 238.866397)"/><g transform="translate(251.147098 40.48583)"><path d="m15.5195682 0 9.5187894 29.2958217-24.92051441-18.1058135h30.80344991l-24.92051442 18.1058135z"/><path d="m15.5195682 0 9.5187894 29.2958217-24.92051441-18.1058135h30.80344991l-24.92051442 18.1058135z" transform="translate(0 56.680162)"/><path d="m15.5195682 0 9.5187894 29.2958217-24.92051441-18.1058135h30.80344991l-24.92051442 18.1058135z" transform="translate(0 113.360324)"/><path d="m15.5195682 0 9.5187894 29.2958217-24.92051441-18.1058135h30.80344991l-24.92051442 18.1058135z" transform="translate(0 170.040486)"/></g><g transform="translate(284.480432 12.145749)"><path d="m15.5195682 0 9.5187894 29.2958217-24.92051441-18.1058135h30.80344991l-24.92051442 18.1058135z"/><path d="m15.5195682 0 9.5187894 29.2958217-24.92051441-18.1058135h30.80344991l-24.92051442 18.1058135z" transform="translate(0 56.680162)"/><path d="m15.5195682 0 9.5187894 29.2958217-24.92051441-18.1058135h30.80344991l-24.92051442 18.1058135z" transform="translate(0 113.360324)"/><path d="m15.5195682 0 9.5187894 29.2958217-24.92051441-18.1058135h30.80344991l-24.92051442 18.1058135z" transform="translate(0 170.040486)"/></g><path d="m15.5195682 0 9.5187894 29.2958217-24.92051441-18.1058135h30.80344991l-24.92051442 18.1058135z" transform="translate(284.480432 238.866397)"/><g transform="translate(317.813765 40.48583)"><path d="m15.5195682 0 9.5187894 29.2958217-24.92051441-18.1058135h30.80344991l-24.92051442 18.1058135z"/><path d="m15.5195682 0 9.5187894 29.2958217-24.92051441-18.1058135h30.80344991l-24.92051442 18.1058135z" transform="translate(0 56.680162)"/><path d="m15.5195682 0 9.5187894 29.2958217-24.92051441-18.1058135h30.80344991l-24.92051442 18.1058135z" transform="translate(0 113.360324)"/><path d="m15.5195682 0 9.5187894 29.2958217-24.92051441-18.1058135h30.80344991l-24.92051442 18.1058135z" transform="translate(0 170.040486)"/></g><g transform="translate(351.147098 12.145749)"><path d="m15.5195682 0 9.5187894 29.2958217-24.92051441-18.1058135h30.80344991l-24.92051442 18.1058135z"/><path d="m15.5195682 0 9.5187894 29.2958217-24.92051441-18.1058135h30.80344991l-24.92051442 18.1058135z" transform="translate(0 56.680162)"/><path d="m15.5195682 0 9.5187894 29.2958217-24.92051441-18.1058135h30.80344991l-24.92051442 18.1058135z" transform="translate(0 113.360324)"/><path d="m15.5195682 0 9.5187894 29.2958217-24.92051441-18.1058135h30.80344991l-24.92051442 18.1058135z" transform="translate(0 170.040486)"/></g><path d="m15.5195682 0 9.5187894 29.2958217-24.92051441-18.1058135h30.80344991l-24.92051442 18.1058135z" transform="translate(351.147098 238.866397)"/></g></g><g><path d="m0-83h1000v666.666667h-1000z" fill="#fff"/><path d="m0-83h1000v200h-1000z" fill="#000"/><path d="m0 150.333333h1000v200h-1000z" fill="#b00"/><path d="m0 383.666667h1000v200h-1000z" fill="#060"/><g transform="translate(354.166667 8.666667)"><path d="m134.622504 475.185117h8.333334v-389.2734414c8.333333-8.3333333 8.333333-20.8333333 8.333333-33.3333333 0-8.3333333 0-41.6666667-12.5-77.7634589-12.5 36.0967922-12.5 69.4301256-12.5 77.7634589 0 12.5 0 25 8.333333 33.3333333z" fill="#000" transform="matrix(.8660254 .5 -.5 .8660254 147.76089 -39.250301)"/><path d="m134.622504 475.185117h8.333334v-389.2734414c8.333333-8.3333333 8.333333-20.8333333 8.333333-33.3333333 0-8.3333333 0-41.6666667-12.5-77.7634589-12.5 36.0967922-12.5 69.4301256-12.5 77.7634589 0 12.5 0 25 8.333333 33.3333333z" fill="#fff" transform="matrix(.8660254 .5 -.5 .8660254 147.76089 -39.250301)"/><path d="m134.622504 475.185117h8.333334v-389.2734414c8.333333-8.3333333 8.333333-20.8333333 8.333333-33.3333333 0-8.3333333 0-41.6666667-12.5-77.7634589-12.5 36.0967922-12.5 69.4301256-12.5 77.7634589 0 12.5 0 25 8.333333 33.3333333z" fill="#000" transform="matrix(-.8660254 .5 .5 .8660254 143.905777 -39.250301)"/><path d="m134.622504 475.185117h8.333334v-389.2734414c8.333333-8.3333333 8.333333-20.8333333 8.333333-33.3333333 0-8.3333333 0-41.6666667-12.5-77.7634589-12.5 36.0967922-12.5 69.4301256-12.5 77.7634589 0 12.5 0 25 8.333333 33.3333333z" fill="#fff" transform="matrix(-.8660254 .5 .5 .8660254 143.905777 -39.250301)"/><path d="m66.6666667 341.666667c12.5 33.333333 54.1666663 100 79.1666663 100s66.666667-66.666667 79.166667-100v-200c-12.5-33.333334-54.166667-100.0000003-79.166667-100.0000003s-66.6666663 66.6666663-79.1666663 100.0000003z" fill="#b00"/><path d="m225 341.666667c12.5-33.333334 20.833333-66.666667 20.833333-100 0-33.333334-8.333333-66.666667-20.833333-100-12.5 33.333333-20.833333 66.666666-20.833333 100 0 33.333333 8.333333 66.666666 20.833333 100z" fill="#000"/><path d="m20.8333333 200c12.5-33.333333 20.8333334-66.666667 20.8333334-100 0-33.3333333-8.3333334-66.6666667-20.8333334-100-12.49999997 33.3333333-20.8333333 66.6666667-20.8333333 100 0 33.333333 8.33333333 66.666667 20.8333333 100z" fill="#000" transform="matrix(-1 0 0 1 87.500001 141.666667)"/><g fill="#fff" transform="translate(125 41.666667)"><ellipse cx="20.833333" cy="200" rx="16.666667" ry="25"/><path d="m25 224.375s16.6666667 33.333333 16.6666667 87.5-16.6666667 87.5-16.6666667 87.5z"/><path d="m0 3.54166667s16.6666667 33.33333333 16.6666667 87.50000003c0 54.1666663-16.6666667 87.5000003-16.6666667 87.5000003z" transform="matrix(-1 0 0 -1 16.666666 179.166666)"/><path d="m0 3.54166667s16.6666667 33.33333333 16.6666667 87.50000003c0 54.1666663-16.6666667 87.5000003-16.6666667 87.5000003z" transform="matrix(-1 0 0 1 16.666666 220.833333)"/><path d="m0 3.54166667s16.6666667 33.33333333 16.6666667 87.50000003c0 54.1666663-16.6666667 87.5000003-16.6666667 87.5000003z" transform="matrix(1 0 0 -1 25 179.166666)"/></g></g></g><g><path d="m0-83h1000v666.666667h-1000z" fill="#0072c6"/><path d="m0-83h1000v444.444444h-1000z" fill="#fff"/><path d="m0-83h1000v222.222222h-1000z" fill="#1eb53a"/></g></g></svg>